<svg width="40" height="40" viewBox="0 0 40 40" fill="none" xmlns="http://www.w3.org/2000/svg">
<circle cx="20" cy="20" r="20" fill="#CCCCCC"/>
<path d="M25.8662 16.1429C25.8662 12.1964 21.644 9 16.4331 9C11.2222 9 7 12.1964 7 16.1429C7 17.6741 7.63946 19.0848 8.72336 20.25C8.11565 21.5982 7.11338 22.6696 7.09977 22.683C7 22.7857 6.97279 22.9375 7.03175 23.0714C7.0907 23.2054 7.21769 23.2857 7.36281 23.2857C9.02268 23.2857 10.3968 22.7366 11.3855 22.1696C12.8458 22.8705 14.5737 23.2857 16.4331 23.2857C21.644 23.2857 25.8662 20.0893 25.8662 16.1429ZM31.3991 25.9643C32.483 24.8036 33.1224 23.3884 33.1224 21.8571C33.1224 18.8705 30.6961 16.3125 27.2585 15.2455C27.2993 15.5402 27.3175 15.8393 27.3175 16.1429C27.3175 20.8705 22.4331 24.7143 16.4331 24.7143C15.9433 24.7143 15.4671 24.6786 14.9955 24.6295C16.424 27.1964 19.78 29 23.6893 29C25.5488 29 27.2766 28.5893 28.737 27.8839C29.7256 28.4509 31.0998 29 32.7596 29C32.9048 29 33.0363 28.9152 33.0907 28.7857C33.1497 28.6563 33.1224 28.5045 33.0227 28.3973C33.0091 28.3839 32.0068 27.317 31.3991 25.9643Z" fill="white"/>
</svg>
