<svg width="40" height="40" viewBox="0 0 40 40" fill="none" xmlns="http://www.w3.org/2000/svg">
<circle cx="20" cy="20" r="20" fill="#F60C36"/>
<path d="M10 13.1875V22.5625C10 23.0803 10.4197 23.5 10.9375 23.5H14.0625C14.5803 23.5 15 23.0803 15 22.5625V13.1875C15 12.6697 14.5803 12.25 14.0625 12.25H10.9375C10.4197 12.25 10 12.6697 10 13.1875ZM11.5625 21C11.5625 20.4822 11.9822 20.0625 12.5 20.0625C13.0178 20.0625 13.4375 20.4822 13.4375 21C13.4375 21.5178 13.0178 21.9375 12.5 21.9375C11.9822 21.9375 11.5625 21.5178 11.5625 21ZM22.1875 31C21.3991 31 21.0357 29.4651 20.8621 28.7424C20.6587 27.8961 20.4484 27.0209 19.8702 26.4415C18.6018 25.1711 17.9364 23.5522 16.389 22.0231C16.345 21.9796 16.31 21.9278 16.2862 21.8706C16.2623 21.8135 16.25 21.7522 16.25 21.6903V13.3399C16.25 13.0844 16.4548 12.8759 16.7103 12.8712C17.3287 12.8599 18.1437 12.5166 18.767 12.2393C20.0074 11.6874 21.5511 11.0007 23.4373 11H23.5484C25.2194 11 27.1954 11.0161 27.9927 12.1616C28.3205 12.6326 28.4007 13.2176 28.2329 13.905C28.87 14.5712 29.2119 15.8138 28.8728 16.8252C29.5581 17.7405 29.6205 19.0179 29.2364 19.9295L29.2407 19.9338C29.7052 20.4005 30.0033 21.1548 30 21.8555C29.9939 23.0412 28.9782 24.125 27.6737 24.125H23.7001C23.9855 25.232 25 26.1614 25 27.8183C25 30.6875 23.125 31 22.1875 31Z" fill="white"/>
</svg>
