<svg width="40" height="40" viewBox="0 0 40 40" fill="none" xmlns="http://www.w3.org/2000/svg">
<circle cx="20" cy="20" r="20" fill="#66E800"/>
<path d="M14.0625 15.75H10.9375C10.4197 15.75 10 16.1697 10 16.6875V26.0625C10 26.5803 10.4197 27 10.9375 27H14.0625C14.5803 27 15 26.5803 15 26.0625V16.6875C15 16.1697 14.5803 15.75 14.0625 15.75ZM12.5 25.4375C11.9822 25.4375 11.5625 25.0178 11.5625 24.5C11.5625 23.9822 11.9822 23.5625 12.5 23.5625C13.0178 23.5625 13.4375 23.9822 13.4375 24.5C13.4375 25.0178 13.0178 25.4375 12.5 25.4375ZM25 10.1817C25 11.8386 23.9855 12.768 23.7001 13.875H27.6737C28.9782 13.875 29.9939 14.9588 30 16.1445C30.0032 16.8452 29.7052 17.5995 29.2406 18.0662L29.2363 18.0705C29.6205 18.9821 29.5581 20.2595 28.8727 21.1748C29.2118 22.1863 28.87 23.4288 28.2328 24.095C28.4007 24.7824 28.3205 25.3674 27.9927 25.8384C27.1954 26.9839 25.2194 27 23.5484 27L23.4373 27C21.5511 26.9993 20.0073 26.3125 18.767 25.7607C18.1436 25.4834 17.3286 25.1401 16.7103 25.1287C16.4548 25.1241 16.25 24.9156 16.25 24.6601V16.3097C16.25 16.1847 16.3001 16.0647 16.389 15.9768C17.9364 14.4478 18.6018 12.8289 19.8701 11.5584C20.4484 10.9791 20.6587 10.1039 20.862 9.25758C21.0357 8.53488 21.3991 7 22.1875 7C23.125 7 25 7.3125 25 10.1817Z" fill="white"/>
</svg>
